<svg width="18" height="19" viewBox="0 0 18 19" fill="none" xmlns="http://www.w3.org/2000/svg">
<g clip-path="url(#clip0)">
<path d="M3.98918 11.3776L3.36263 13.7166L1.07258 13.7651C0.388195 12.4957 0 11.0434 0 9.50001C0 8.00759 0.362953 6.60021 1.00631 5.36099H1.0068L3.04559 5.73477L3.9387 7.76132C3.75177 8.30628 3.64989 8.89128 3.64989 9.50001C3.64996 10.1607 3.76963 10.7937 3.98918 11.3776Z" fill="#FBBB00"/>
<path d="M17.8428 7.81866C17.9461 8.36309 18 8.92535 18 9.49998C18 10.1443 17.9323 10.7728 17.8032 11.3791C17.3651 13.4422 16.2203 15.2437 14.6344 16.5185L14.6339 16.518L12.066 16.387L11.7025 14.1182C12.7548 13.501 13.5772 12.5353 14.0104 11.3791H9.19788V7.81866H14.0806H17.8428Z" fill="#518EF8"/>
<path d="M14.6339 16.5181L14.6344 16.5185C13.092 17.7583 11.1328 18.5 8.99999 18.5C5.57257 18.5 2.59269 16.5843 1.07257 13.7651L3.98917 11.3777C4.74921 13.4061 6.70597 14.8501 8.99999 14.8501C9.98602 14.8501 10.9098 14.5835 11.7024 14.1182L14.6339 16.5181Z" fill="#28B446"/>
<path d="M14.7446 2.57197L11.829 4.95894C11.0087 4.44615 10.0389 4.14992 8.99997 4.14992C6.65403 4.14992 4.66067 5.66013 3.9387 7.76131L1.00678 5.36098H1.00629C2.50415 2.47307 5.52161 0.5 8.99997 0.5C11.1837 0.5 13.186 1.27787 14.7446 2.57197Z" fill="#F14336"/>
</g>
<defs>
<clipPath id="clip0">
<rect width="18" height="18" fill="white" transform="translate(0 0.5)"/>
</clipPath>
</defs>
</svg>
